<svg width="100%" height="100%" viewBox="0 0 250 42" fill="none" xmlns="http://www.w3.org/2000/svg">
<path d="M0 14C0 11.2386 2.23858 9 5 9H50.865C51.7128 9 52.176 9.98886 51.6332 10.6402L49.1589 13.6093C48.4101 14.5079 48 15.6406 48 16.8102V21L48.1225 27.9114C48.1721 30.707 45.9194 33 43.1233 33H5C2.23858 33 0 30.7614 0 28V14Z" fill="#34C1FD"/>
<rect x="3" y="13" width="22" height="3" rx="1.5" fill="white"/>
<rect x="3" y="23" width="8" height="3" rx="1.5" fill="white"/>
<rect x="27" y="13" width="9" height="3" rx="1.5" fill="white"/>
<rect x="13" y="23" width="25" height="3" rx="1.5" fill="white"/>
<rect x="40" y="23" width="3" height="3" rx="1.5" fill="white"/>
<rect x="3" y="18" width="30" height="3" rx="1.5" fill="white"/>
<rect x="35" y="18" width="10" height="3" rx="1.5" fill="white"/>
<path d="M250 14C250 11.2386 247.761 9 245 9H199.135C198.287 9 197.824 9.98886 198.367 10.6402L200.841 13.6093C201.59 14.5079 202 15.6406 202 16.8102V21L201.877 27.9114C201.828 30.707 204.081 33 206.877 33H245C247.761 33 250 30.7614 250 28V14Z" fill="#FD5DAF"/>
<rect width="22" height="3" rx="1.5" transform="matrix(-1 0 0 1 237 13)" fill="white"/>
<rect width="8" height="3" rx="1.5" transform="matrix(-1 0 0 1 244 18)" fill="white"/>
<rect width="9" height="3" rx="1.5" transform="matrix(-1 0 0 1 214 13)" fill="white"/>
<rect width="25" height="3" rx="1.5" transform="matrix(-1 0 0 1 230 23)" fill="white"/>
<rect width="3" height="3" rx="1.5" transform="matrix(-1 0 0 1 235 23)" fill="white"/>
<rect width="30" height="3" rx="1.5" transform="matrix(-1 0 0 1 235 18)" fill="white"/>
<rect width="10" height="3" rx="1.5" transform="matrix(-1 0 0 1 248 13)" fill="white"/>
<rect x="53" width="145" height="8" rx="4" fill="#6B7FFD"/>
<path d="M59.2656 4.3125V3.42188C59.2637 3.14844 59.2266 2.88965 59.1543 2.64551C59.084 2.39941 58.9727 2.19727 58.8203 2.03906C58.7148 1.92383 58.5859 1.83398 58.4336 1.76953C58.2832 1.70508 58.1123 1.67285 57.9209 1.67285C57.6924 1.67285 57.4941 1.71777 57.3262 1.80762C57.1582 1.89746 57.0195 2.02148 56.9102 2.17969C56.7988 2.33789 56.7158 2.52441 56.6611 2.73926C56.6064 2.9541 56.5791 3.18164 56.5791 3.42188V4.3125C56.5791 4.58789 56.6143 4.84668 56.6846 5.08887C56.7568 5.3291 56.8721 5.53125 57.0303 5.69531C57.1377 5.81445 57.2666 5.90527 57.417 5.96777C57.5674 6.02832 57.7373 6.05859 57.9268 6.05859C58.1592 6.05859 58.3594 6.0127 58.5273 5.9209C58.6953 5.82715 58.833 5.70117 58.9404 5.54297C59.0498 5.38477 59.1309 5.2002 59.1836 4.98926C59.2383 4.77832 59.2656 4.55273 59.2656 4.3125ZM56.9658 4.56738C56.9521 4.48926 56.9424 4.41211 56.9365 4.33594C56.9326 4.25977 56.9307 4.18359 56.9307 4.10742V3.36035C56.9307 3.16895 56.9502 2.9834 56.9893 2.80371C57.0303 2.62207 57.0928 2.47168 57.1768 2.35254C57.2607 2.2334 57.3613 2.14062 57.4785 2.07422C57.5977 2.00781 57.7451 1.97461 57.9209 1.97461C58.0576 1.97461 58.1787 1.99609 58.2842 2.03906C58.3896 2.08008 58.4805 2.13965 58.5566 2.21777C58.6328 2.2959 58.6953 2.38965 58.7441 2.49902C58.7949 2.60645 58.833 2.72656 58.8584 2.85938L56.9658 4.56738ZM58.9141 4.36816C58.9121 4.56348 58.8916 4.74805 58.8525 4.92188C58.8154 5.0957 58.752 5.24609 58.6621 5.37305C58.5879 5.49023 58.4893 5.58398 58.3662 5.6543C58.2451 5.72461 58.0986 5.75977 57.9268 5.75977C57.7959 5.75977 57.6787 5.74023 57.5752 5.70117C57.4717 5.66016 57.3828 5.60352 57.3086 5.53125C57.2305 5.45703 57.165 5.36719 57.1123 5.26172C57.0615 5.1543 57.0225 5.03516 56.9951 4.9043L58.8848 3.20215C58.8945 3.27637 58.9014 3.3584 58.9053 3.44824C58.9092 3.53809 58.9121 3.61426 58.9141 3.67676V4.36816ZM66.4727 4.3125V3.42188C66.4707 3.14844 66.4336 2.88965 66.3613 2.64551C66.291 2.39941 66.1797 2.19727 66.0273 2.03906C65.9219 1.92383 65.793 1.83398 65.6406 1.76953C65.4902 1.70508 65.3193 1.67285 65.1279 1.67285C64.8994 1.67285 64.7012 1.71777 64.5332 1.80762C64.3652 1.89746 64.2266 2.02148 64.1172 2.17969C64.0059 2.33789 63.9229 2.52441 63.8682 2.73926C63.8135 2.9541 63.7861 3.18164 63.7861 3.42188V4.3125C63.7861 4.58789 63.8213 4.84668 63.8916 5.08887C63.9639 5.3291 64.0791 5.53125 64.2373 5.69531C64.3447 5.81445 64.4736 5.90527 64.624 5.96777C64.7744 6.02832 64.9443 6.05859 65.1338 6.05859C65.3662 6.05859 65.5664 6.0127 65.7344 5.9209C65.9023 5.82715 66.04 5.70117 66.1475 5.54297C66.2568 5.38477 66.3379 5.2002 66.3906 4.98926C66.4453 4.77832 66.4727 4.55273 66.4727 4.3125ZM64.1729 4.56738C64.1592 4.48926 64.1494 4.41211 64.1436 4.33594C64.1396 4.25977 64.1377 4.18359 64.1377 4.10742V3.36035C64.1377 3.16895 64.1572 2.9834 64.1963 2.80371C64.2373 2.62207 64.2998 2.47168 64.3838 2.35254C64.4678 2.2334 64.5684 2.14062 64.6855 2.07422C64.8047 2.00781 64.9521 1.97461 65.1279 1.97461C65.2646 1.97461 65.3857 1.99609 65.4912 2.03906C65.5967 2.08008 65.6875 2.13965 65.7637 2.21777C65.8398 2.2959 65.9023 2.38965 65.9512 2.49902C66.002 2.60645 66.04 2.72656 66.0654 2.85938L64.1729 4.56738ZM66.1211 4.36816C66.1191 4.56348 66.0986 4.74805 66.0596 4.92188C66.0225 5.0957 65.959 5.24609 65.8691 5.37305C65.7949 5.49023 65.6963 5.58398 65.5732 5.6543C65.4521 5.72461 65.3057 5.75977 65.1338 5.75977C65.0029 5.75977 64.8857 5.74023 64.7822 5.70117C64.6787 5.66016 64.5898 5.60352 64.5156 5.53125C64.4375 5.45703 64.3721 5.36719 64.3193 5.26172C64.2686 5.1543 64.2295 5.03516 64.2021 4.9043L66.0918 3.20215C66.1016 3.27637 66.1084 3.3584 66.1123 3.44824C66.1162 3.53809 66.1191 3.61426 66.1211 3.67676V4.36816ZM72.7041 6V1.73438H72.6543L71.1689 2.34961V2.68652L72.3525 2.18262V6H72.7041ZM80.8867 4.3125V3.42188C80.8848 3.14844 80.8477 2.88965 80.7754 2.64551C80.7051 2.39941 80.5938 2.19727 80.4414 2.03906C80.3359 1.92383 80.207 1.83398 80.0547 1.76953C79.9043 1.70508 79.7334 1.67285 79.542 1.67285C79.3135 1.67285 79.1152 1.71777 78.9473 1.80762C78.7793 1.89746 78.6406 2.02148 78.5312 2.17969C78.4199 2.33789 78.3369 2.52441 78.2822 2.73926C78.2275 2.9541 78.2002 3.18164 78.2002 3.42188V4.3125C78.2002 4.58789 78.2354 4.84668 78.3057 5.08887C78.3779 5.3291 78.4932 5.53125 78.6514 5.69531C78.7588 5.81445 78.8877 5.90527 79.0381 5.96777C79.1885 6.02832 79.3584 6.05859 79.5479 6.05859C79.7803 6.05859 79.9805 6.0127 80.1484 5.9209C80.3164 5.82715 80.4541 5.70117 80.5615 5.54297C80.6709 5.38477 80.752 5.2002 80.8047 4.98926C80.8594 4.77832 80.8867 4.55273 80.8867 4.3125ZM78.5869 4.56738C78.5732 4.48926 78.5635 4.41211 78.5576 4.33594C78.5537 4.25977 78.5518 4.18359 78.5518 4.10742V3.36035C78.5518 3.16895 78.5713 2.9834 78.6104 2.80371C78.6514 2.62207 78.7139 2.47168 78.7979 2.35254C78.8818 2.2334 78.9824 2.14062 79.0996 2.07422C79.2188 2.00781 79.3662 1.97461 79.542 1.97461C79.6787 1.97461 79.7998 1.99609 79.9053 2.03906C80.0107 2.08008 80.1016 2.13965 80.1777 2.21777C80.2539 2.2959 80.3164 2.38965 80.3652 2.49902C80.416 2.60645 80.4541 2.72656 80.4795 2.85938L78.5869 4.56738ZM80.5352 4.36816C80.5332 4.56348 80.5127 4.74805 80.4736 4.92188C80.4365 5.0957 80.373 5.24609 80.2832 5.37305C80.209 5.49023 80.1104 5.58398 79.9873 5.6543C79.8662 5.72461 79.7197 5.75977 79.5479 5.75977C79.417 5.75977 79.2998 5.74023 79.1963 5.70117C79.0928 5.66016 79.0039 5.60352 78.9297 5.53125C78.8516 5.45703 78.7861 5.36719 78.7334 5.26172C78.6826 5.1543 78.6436 5.03516 78.6162 4.9043L80.5059 3.20215C80.5156 3.27637 80.5225 3.3584 80.5264 3.44824C80.5303 3.53809 80.5332 3.61426 80.5352 3.67676V4.36816ZM87.1182 6V1.73438H87.0684L85.583 2.34961V2.68652L86.7666 2.18262V6H87.1182ZM91.9121 4.32C91.9121 3.976 91.9761 3.674 92.1041 3.414C92.2361 3.154 92.4141 2.954 92.6381 2.814C92.8621 2.674 93.1121 2.604 93.3881 2.604C93.6081 2.604 93.8081 2.65 93.9881 2.742C94.1721 2.834 94.3161 2.958 94.4201 3.114V1.56H95.4461V6H94.4201V5.52C94.3241 5.68 94.1861 5.808 94.0061 5.904C93.8301 6 93.6241 6.048 93.3881 6.048C93.1121 6.048 92.8621 5.978 92.6381 5.838C92.4141 5.694 92.2361 5.492 92.1041 5.232C91.9761 4.968 91.9121 4.664 91.9121 4.32ZM94.4201 4.326C94.4201 4.07 94.3481 3.868 94.2041 3.72C94.0641 3.572 93.8921 3.498 93.6881 3.498C93.4841 3.498 93.3101 3.572 93.1661 3.72C93.0261 3.864 92.9561 4.064 92.9561 4.32C92.9561 4.576 93.0261 4.78 93.1661 4.932C93.3101 5.08 93.4841 5.154 93.6881 5.154C93.8921 5.154 94.0641 5.08 94.2041 4.932C94.3481 4.784 94.4201 4.582 94.4201 4.326ZM95.9844 4.32C95.9844 3.976 96.0484 3.674 96.1764 3.414C96.3084 3.154 96.4864 2.954 96.7104 2.814C96.9344 2.674 97.1844 2.604 97.4604 2.604C97.6964 2.604 97.9024 2.652 98.0784 2.748C98.2584 2.844 98.3964 2.97 98.4924 3.126V2.652H99.5184V6H98.4924V5.526C98.3924 5.682 98.2524 5.808 98.0724 5.904C97.8964 6 97.6904 6.048 97.4544 6.048C97.1824 6.048 96.9344 5.978 96.7104 5.838C96.4864 5.694 96.3084 5.492 96.1764 5.232C96.0484 4.968 95.9844 4.664 95.9844 4.32ZM98.4924 4.326C98.4924 4.07 98.4204 3.868 98.2764 3.72C98.1364 3.572 97.9644 3.498 97.7604 3.498C97.5564 3.498 97.3824 3.572 97.2384 3.72C97.0984 3.864 97.0284 4.064 97.0284 4.32C97.0284 4.576 97.0984 4.78 97.2384 4.932C97.3824 5.08 97.5564 5.154 97.7604 5.154C97.9644 5.154 98.1364 5.08 98.2764 4.932C98.4204 4.784 98.4924 4.582 98.4924 4.326ZM102.127 5.13V6H101.605C101.233 6 100.943 5.91 100.735 5.73C100.527 5.546 100.423 5.248 100.423 4.836V3.504H100.015V2.652H100.423V1.836H101.449V2.652H102.121V3.504H101.449V4.848C101.449 4.948 101.473 5.02 101.521 5.064C101.569 5.108 101.649 5.13 101.761 5.13H102.127ZM102.494 4.32C102.494 3.976 102.558 3.674 102.686 3.414C102.818 3.154 102.996 2.954 103.22 2.814C103.444 2.674 103.694 2.604 103.97 2.604C104.206 2.604 104.412 2.652 104.588 2.748C104.768 2.844 104.906 2.97 105.002 3.126V2.652H106.028V6H105.002V5.526C104.902 5.682 104.762 5.808 104.582 5.904C104.406 6 104.2 6.048 103.964 6.048C103.692 6.048 103.444 5.978 103.22 5.838C102.996 5.694 102.818 5.492 102.686 5.232C102.558 4.968 102.494 4.664 102.494 4.32ZM105.002 4.326C105.002 4.07 104.93 3.868 104.786 3.72C104.646 3.572 104.474 3.498 104.27 3.498C104.066 3.498 103.892 3.572 103.748 3.72C103.608 3.864 103.538 4.064 103.538 4.32C103.538 4.576 103.608 4.78 103.748 4.932C103.892 5.08 104.066 5.154 104.27 5.154C104.474 5.154 104.646 5.08 104.786 4.932C104.93 4.784 105.002 4.582 105.002 4.326ZM109.068 3.126C109.164 2.97 109.302 2.844 109.482 2.748C109.662 2.652 109.868 2.604 110.1 2.604C110.376 2.604 110.626 2.674 110.85 2.814C111.074 2.954 111.25 3.154 111.378 3.414C111.51 3.674 111.576 3.976 111.576 4.32C111.576 4.664 111.51 4.968 111.378 5.232C111.25 5.492 111.074 5.694 110.85 5.838C110.626 5.978 110.376 6.048 110.1 6.048C109.864 6.048 109.658 6.002 109.482 5.91C109.306 5.814 109.168 5.688 109.068 5.532V6H108.042V1.56H109.068V3.126ZM110.532 4.32C110.532 4.064 110.46 3.864 110.316 3.72C110.176 3.572 110.002 3.498 109.794 3.498C109.59 3.498 109.416 3.572 109.272 3.72C109.132 3.868 109.062 4.07 109.062 4.326C109.062 4.582 109.132 4.784 109.272 4.932C109.416 5.08 109.59 5.154 109.794 5.154C109.998 5.154 110.172 5.08 110.316 4.932C110.46 4.78 110.532 4.576 110.532 4.32ZM115.27 4.272C115.27 4.368 115.264 4.468 115.252 4.572H112.93C112.946 4.78 113.012 4.94 113.128 5.052C113.248 5.16 113.394 5.214 113.566 5.214C113.822 5.214 114 5.106 114.1 4.89H115.192C115.136 5.11 115.034 5.308 114.886 5.484C114.742 5.66 114.56 5.798 114.34 5.898C114.12 5.998 113.874 6.048 113.602 6.048C113.274 6.048 112.982 5.978 112.726 5.838C112.47 5.698 112.27 5.498 112.126 5.238C111.982 4.978 111.91 4.674 111.91 4.326C111.91 3.978 111.98 3.674 112.12 3.414C112.264 3.154 112.464 2.954 112.72 2.814C112.976 2.674 113.27 2.604 113.602 2.604C113.926 2.604 114.214 2.672 114.466 2.808C114.718 2.944 114.914 3.138 115.054 3.39C115.198 3.642 115.27 3.936 115.27 4.272ZM114.22 4.002C114.22 3.826 114.16 3.686 114.04 3.582C113.92 3.478 113.77 3.426 113.59 3.426C113.418 3.426 113.272 3.476 113.152 3.576C113.036 3.676 112.964 3.818 112.936 4.002H114.22ZM116.327 2.304C116.147 2.304 115.999 2.252 115.883 2.148C115.771 2.04 115.715 1.908 115.715 1.752C115.715 1.592 115.771 1.46 115.883 1.356C115.999 1.248 116.147 1.194 116.327 1.194C116.503 1.194 116.647 1.248 116.759 1.356C116.875 1.46 116.933 1.592 116.933 1.752C116.933 1.908 116.875 2.04 116.759 2.148C116.647 2.252 116.503 2.304 116.327 2.304ZM116.837 2.652V6H115.811V2.652H116.837ZM119.621 2.616C120.013 2.616 120.325 2.744 120.557 3C120.793 3.252 120.911 3.6 120.911 4.044V6H119.891V4.182C119.891 3.958 119.833 3.784 119.717 3.66C119.601 3.536 119.445 3.474 119.249 3.474C119.053 3.474 118.897 3.536 118.781 3.66C118.665 3.784 118.607 3.958 118.607 4.182V6H117.581V2.652H118.607V3.096C118.711 2.948 118.851 2.832 119.027 2.748C119.203 2.66 119.401 2.616 119.621 2.616ZM122.896 2.604C123.132 2.604 123.338 2.652 123.514 2.748C123.694 2.844 123.832 2.97 123.928 3.126V2.652H124.954V5.994C124.954 6.302 124.892 6.58 124.768 6.828C124.648 7.08 124.462 7.28 124.21 7.428C123.962 7.576 123.652 7.65 123.28 7.65C122.784 7.65 122.382 7.532 122.074 7.296C121.766 7.064 121.59 6.748 121.546 6.348H122.56C122.592 6.476 122.668 6.576 122.788 6.648C122.908 6.724 123.056 6.762 123.232 6.762C123.444 6.762 123.612 6.7 123.736 6.576C123.864 6.456 123.928 6.262 123.928 5.994V5.52C123.828 5.676 123.69 5.804 123.514 5.904C123.338 6 123.132 6.048 122.896 6.048C122.62 6.048 122.37 5.978 122.146 5.838C121.922 5.694 121.744 5.492 121.612 5.232C121.484 4.968 121.42 4.664 121.42 4.32C121.42 3.976 121.484 3.674 121.612 3.414C121.744 3.154 121.922 2.954 122.146 2.814C122.37 2.674 122.62 2.604 122.896 2.604ZM123.928 4.326C123.928 4.07 123.856 3.868 123.712 3.72C123.572 3.572 123.4 3.498 123.196 3.498C122.992 3.498 122.818 3.572 122.674 3.72C122.534 3.864 122.464 4.064 122.464 4.32C122.464 4.576 122.534 4.78 122.674 4.932C122.818 5.08 122.992 5.154 123.196 5.154C123.4 5.154 123.572 5.08 123.712 4.932C123.856 4.784 123.928 4.582 123.928 4.326ZM128.834 5.13V6H128.312C127.94 6 127.65 5.91 127.442 5.73C127.234 5.546 127.13 5.248 127.13 4.836V3.504H126.722V2.652H127.13V1.836H128.156V2.652H128.828V3.504H128.156V4.848C128.156 4.948 128.18 5.02 128.228 5.064C128.276 5.108 128.356 5.13 128.468 5.13H128.834ZM130.431 3.21C130.551 3.026 130.701 2.882 130.881 2.778C131.061 2.67 131.261 2.616 131.481 2.616V3.702H131.199C130.943 3.702 130.751 3.758 130.623 3.87C130.495 3.978 130.431 4.17 130.431 4.446V6H129.405V2.652H130.431V3.21ZM131.768 4.32C131.768 3.976 131.832 3.674 131.96 3.414C132.092 3.154 132.27 2.954 132.494 2.814C132.718 2.674 132.968 2.604 133.244 2.604C133.48 2.604 133.686 2.652 133.862 2.748C134.042 2.844 134.18 2.97 134.276 3.126V2.652H135.302V6H134.276V5.526C134.176 5.682 134.036 5.808 133.856 5.904C133.68 6 133.474 6.048 133.238 6.048C132.966 6.048 132.718 5.978 132.494 5.838C132.27 5.694 132.092 5.492 131.96 5.232C131.832 4.968 131.768 4.664 131.768 4.32ZM134.276 4.326C134.276 4.07 134.204 3.868 134.06 3.72C133.92 3.572 133.748 3.498 133.544 3.498C133.34 3.498 133.166 3.572 133.022 3.72C132.882 3.864 132.812 4.064 132.812 4.32C132.812 4.576 132.882 4.78 133.022 4.932C133.166 5.08 133.34 5.154 133.544 5.154C133.748 5.154 133.92 5.08 134.06 4.932C134.204 4.784 134.276 4.582 134.276 4.326ZM138.084 2.616C138.476 2.616 138.788 2.744 139.02 3C139.256 3.252 139.374 3.6 139.374 4.044V6H138.354V4.182C138.354 3.958 138.296 3.784 138.18 3.66C138.064 3.536 137.908 3.474 137.712 3.474C137.516 3.474 137.36 3.536 137.244 3.66C137.128 3.784 137.07 3.958 137.07 4.182V6H136.044V2.652H137.07V3.096C137.174 2.948 137.314 2.832 137.49 2.748C137.666 2.66 137.864 2.616 138.084 2.616ZM141.449 6.048C141.157 6.048 140.897 5.998 140.669 5.898C140.441 5.798 140.261 5.662 140.129 5.49C139.997 5.314 139.923 5.118 139.907 4.902H140.921C140.933 5.018 140.987 5.112 141.083 5.184C141.179 5.256 141.297 5.292 141.437 5.292C141.565 5.292 141.663 5.268 141.731 5.22C141.803 5.168 141.839 5.102 141.839 5.022C141.839 4.926 141.789 4.856 141.689 4.812C141.589 4.764 141.427 4.712 141.203 4.656C140.963 4.6 140.763 4.542 140.603 4.482C140.443 4.418 140.305 4.32 140.189 4.188C140.073 4.052 140.015 3.87 140.015 3.642C140.015 3.45 140.067 3.276 140.171 3.12C140.279 2.96 140.435 2.834 140.639 2.742C140.847 2.65 141.093 2.604 141.377 2.604C141.797 2.604 142.127 2.708 142.367 2.916C142.611 3.124 142.751 3.4 142.787 3.744H141.839C141.823 3.628 141.771 3.536 141.683 3.468C141.599 3.4 141.487 3.366 141.347 3.366C141.227 3.366 141.135 3.39 141.071 3.438C141.007 3.482 140.975 3.544 140.975 3.624C140.975 3.72 141.025 3.792 141.125 3.84C141.229 3.888 141.389 3.936 141.605 3.984C141.853 4.048 142.055 4.112 142.211 4.176C142.367 4.236 142.503 4.336 142.619 4.476C142.739 4.612 142.801 4.796 142.805 5.028C142.805 5.224 142.749 5.4 142.637 5.556C142.529 5.708 142.371 5.828 142.163 5.916C141.959 6.004 141.721 6.048 141.449 6.048ZM145.113 3.504H144.561V6H143.535V3.504H143.163V2.652H143.535V2.556C143.535 2.144 143.653 1.832 143.889 1.62C144.125 1.404 144.471 1.296 144.927 1.296C145.003 1.296 145.059 1.298 145.095 1.302V2.172C144.899 2.16 144.761 2.188 144.681 2.256C144.601 2.324 144.561 2.446 144.561 2.622V2.652H145.113V3.504ZM148.751 4.272C148.751 4.368 148.745 4.468 148.733 4.572H146.411C146.427 4.78 146.493 4.94 146.609 5.052C146.729 5.16 146.875 5.214 147.047 5.214C147.303 5.214 147.481 5.106 147.581 4.89H148.673C148.617 5.11 148.515 5.308 148.367 5.484C148.223 5.66 148.041 5.798 147.821 5.898C147.601 5.998 147.355 6.048 147.083 6.048C146.755 6.048 146.463 5.978 146.207 5.838C145.951 5.698 145.751 5.498 145.607 5.238C145.463 4.978 145.391 4.674 145.391 4.326C145.391 3.978 145.461 3.674 145.601 3.414C145.745 3.154 145.945 2.954 146.201 2.814C146.457 2.674 146.751 2.604 147.083 2.604C147.407 2.604 147.695 2.672 147.947 2.808C148.199 2.944 148.395 3.138 148.535 3.39C148.679 3.642 148.751 3.936 148.751 4.272ZM147.701 4.002C147.701 3.826 147.641 3.686 147.521 3.582C147.401 3.478 147.251 3.426 147.071 3.426C146.899 3.426 146.753 3.476 146.633 3.576C146.517 3.676 146.445 3.818 146.417 4.002H147.701ZM150.318 3.21C150.438 3.026 150.588 2.882 150.768 2.778C150.948 2.67 151.148 2.616 151.368 2.616V3.702H151.086C150.83 3.702 150.638 3.758 150.51 3.87C150.382 3.978 150.318 4.17 150.318 4.446V6H149.292V2.652H150.318V3.21ZM155.014 4.272C155.014 4.368 155.008 4.468 154.996 4.572H152.674C152.69 4.78 152.756 4.94 152.872 5.052C152.992 5.16 153.138 5.214 153.31 5.214C153.566 5.214 153.744 5.106 153.844 4.89H154.936C154.88 5.11 154.778 5.308 154.63 5.484C154.486 5.66 154.304 5.798 154.084 5.898C153.864 5.998 153.618 6.048 153.346 6.048C153.018 6.048 152.726 5.978 152.47 5.838C152.214 5.698 152.014 5.498 151.87 5.238C151.726 4.978 151.654 4.674 151.654 4.326C151.654 3.978 151.724 3.674 151.864 3.414C152.008 3.154 152.208 2.954 152.464 2.814C152.72 2.674 153.014 2.604 153.346 2.604C153.67 2.604 153.958 2.672 154.21 2.808C154.462 2.944 154.658 3.138 154.798 3.39C154.942 3.642 155.014 3.936 155.014 4.272ZM153.964 4.002C153.964 3.826 153.904 3.686 153.784 3.582C153.664 3.478 153.514 3.426 153.334 3.426C153.162 3.426 153.016 3.476 152.896 3.576C152.78 3.676 152.708 3.818 152.68 4.002H153.964ZM155.352 4.32C155.352 3.976 155.416 3.674 155.544 3.414C155.676 3.154 155.854 2.954 156.078 2.814C156.302 2.674 156.552 2.604 156.828 2.604C157.048 2.604 157.248 2.65 157.428 2.742C157.612 2.834 157.756 2.958 157.86 3.114V1.56H158.886V6H157.86V5.52C157.764 5.68 157.626 5.808 157.446 5.904C157.27 6 157.064 6.048 156.828 6.048C156.552 6.048 156.302 5.978 156.078 5.838C155.854 5.694 155.676 5.492 155.544 5.232C155.416 4.968 155.352 4.664 155.352 4.32ZM157.86 4.326C157.86 4.07 157.788 3.868 157.644 3.72C157.504 3.572 157.332 3.498 157.128 3.498C156.924 3.498 156.75 3.572 156.606 3.72C156.466 3.864 156.396 4.064 156.396 4.32C156.396 4.576 156.466 4.78 156.606 4.932C156.75 5.08 156.924 5.154 157.128 5.154C157.332 5.154 157.504 5.08 157.644 4.932C157.788 4.784 157.86 4.582 157.86 4.326ZM165.607 4.3125V3.42188C165.605 3.14844 165.568 2.88965 165.496 2.64551C165.426 2.39941 165.314 2.19727 165.162 2.03906C165.057 1.92383 164.928 1.83398 164.775 1.76953C164.625 1.70508 164.454 1.67285 164.263 1.67285C164.034 1.67285 163.836 1.71777 163.668 1.80762C163.5 1.89746 163.361 2.02148 163.252 2.17969C163.141 2.33789 163.058 2.52441 163.003 2.73926C162.948 2.9541 162.921 3.18164 162.921 3.42188V4.3125C162.921 4.58789 162.956 4.84668 163.026 5.08887C163.099 5.3291 163.214 5.53125 163.372 5.69531C163.479 5.81445 163.608 5.90527 163.759 5.96777C163.909 6.02832 164.079 6.05859 164.269 6.05859C164.501 6.05859 164.701 6.0127 164.869 5.9209C165.037 5.82715 165.175 5.70117 165.282 5.54297C165.392 5.38477 165.473 5.2002 165.525 4.98926C165.58 4.77832 165.607 4.55273 165.607 4.3125ZM163.308 4.56738C163.294 4.48926 163.284 4.41211 163.278 4.33594C163.274 4.25977 163.272 4.18359 163.272 4.10742V3.36035C163.272 3.16895 163.292 2.9834 163.331 2.80371C163.372 2.62207 163.435 2.47168 163.519 2.35254C163.603 2.2334 163.703 2.14062 163.82 2.07422C163.939 2.00781 164.087 1.97461 164.263 1.97461C164.399 1.97461 164.521 1.99609 164.626 2.03906C164.731 2.08008 164.822 2.13965 164.898 2.21777C164.975 2.2959 165.037 2.38965 165.086 2.49902C165.137 2.60645 165.175 2.72656 165.2 2.85938L163.308 4.56738ZM165.256 4.36816C165.254 4.56348 165.233 4.74805 165.194 4.92188C165.157 5.0957 165.094 5.24609 165.004 5.37305C164.93 5.49023 164.831 5.58398 164.708 5.6543C164.587 5.72461 164.44 5.75977 164.269 5.75977C164.138 5.75977 164.021 5.74023 163.917 5.70117C163.813 5.66016 163.725 5.60352 163.65 5.53125C163.572 5.45703 163.507 5.36719 163.454 5.26172C163.403 5.1543 163.364 5.03516 163.337 4.9043L165.227 3.20215C165.236 3.27637 165.243 3.3584 165.247 3.44824C165.251 3.53809 165.254 3.61426 165.256 3.67676V4.36816ZM172.814 4.3125V3.42188C172.812 3.14844 172.775 2.88965 172.703 2.64551C172.633 2.39941 172.521 2.19727 172.369 2.03906C172.264 1.92383 172.135 1.83398 171.982 1.76953C171.832 1.70508 171.661 1.67285 171.47 1.67285C171.241 1.67285 171.043 1.71777 170.875 1.80762C170.707 1.89746 170.568 2.02148 170.459 2.17969C170.348 2.33789 170.265 2.52441 170.21 2.73926C170.155 2.9541 170.128 3.18164 170.128 3.42188V4.3125C170.128 4.58789 170.163 4.84668 170.233 5.08887C170.306 5.3291 170.421 5.53125 170.579 5.69531C170.687 5.81445 170.815 5.90527 170.966 5.96777C171.116 6.02832 171.286 6.05859 171.476 6.05859C171.708 6.05859 171.908 6.0127 172.076 5.9209C172.244 5.82715 172.382 5.70117 172.489 5.54297C172.599 5.38477 172.68 5.2002 172.732 4.98926C172.787 4.77832 172.814 4.55273 172.814 4.3125ZM170.515 4.56738C170.501 4.48926 170.491 4.41211 170.485 4.33594C170.481 4.25977 170.479 4.18359 170.479 4.10742V3.36035C170.479 3.16895 170.499 2.9834 170.538 2.80371C170.579 2.62207 170.642 2.47168 170.726 2.35254C170.81 2.2334 170.91 2.14062 171.027 2.07422C171.146 2.00781 171.294 1.97461 171.47 1.97461C171.606 1.97461 171.728 1.99609 171.833 2.03906C171.938 2.08008 172.029 2.13965 172.105 2.21777C172.182 2.2959 172.244 2.38965 172.293 2.49902C172.344 2.60645 172.382 2.72656 172.407 2.85938L170.515 4.56738ZM172.463 4.36816C172.461 4.56348 172.44 4.74805 172.401 4.92188C172.364 5.0957 172.301 5.24609 172.211 5.37305C172.137 5.49023 172.038 5.58398 171.915 5.6543C171.794 5.72461 171.647 5.75977 171.476 5.75977C171.345 5.75977 171.228 5.74023 171.124 5.70117C171.021 5.66016 170.932 5.60352 170.857 5.53125C170.779 5.45703 170.714 5.36719 170.661 5.26172C170.61 5.1543 170.571 5.03516 170.544 4.9043L172.434 3.20215C172.443 3.27637 172.45 3.3584 172.454 3.44824C172.458 3.53809 172.461 3.61426 172.463 3.67676V4.36816ZM179.046 6V1.73438H178.996L177.511 2.34961V2.68652L178.694 2.18262V6H179.046ZM187.229 4.3125V3.42188C187.227 3.14844 187.189 2.88965 187.117 2.64551C187.047 2.39941 186.936 2.19727 186.783 2.03906C186.678 1.92383 186.549 1.83398 186.396 1.76953C186.246 1.70508 186.075 1.67285 185.884 1.67285C185.655 1.67285 185.457 1.71777 185.289 1.80762C185.121 1.89746 184.982 2.02148 184.873 2.17969C184.762 2.33789 184.679 2.52441 184.624 2.73926C184.569 2.9541 184.542 3.18164 184.542 3.42188V4.3125C184.542 4.58789 184.577 4.84668 184.647 5.08887C184.72 5.3291 184.835 5.53125 184.993 5.69531C185.101 5.81445 185.229 5.90527 185.38 5.96777C185.53 6.02832 185.7 6.05859 185.89 6.05859C186.122 6.05859 186.322 6.0127 186.49 5.9209C186.658 5.82715 186.796 5.70117 186.903 5.54297C187.013 5.38477 187.094 5.2002 187.146 4.98926C187.201 4.77832 187.229 4.55273 187.229 4.3125ZM184.929 4.56738C184.915 4.48926 184.905 4.41211 184.899 4.33594C184.896 4.25977 184.894 4.18359 184.894 4.10742V3.36035C184.894 3.16895 184.913 2.9834 184.952 2.80371C184.993 2.62207 185.056 2.47168 185.14 2.35254C185.224 2.2334 185.324 2.14062 185.441 2.07422C185.561 2.00781 185.708 1.97461 185.884 1.97461C186.021 1.97461 186.142 1.99609 186.247 2.03906C186.353 2.08008 186.443 2.13965 186.52 2.21777C186.596 2.2959 186.658 2.38965 186.707 2.49902C186.758 2.60645 186.796 2.72656 186.821 2.85938L184.929 4.56738ZM186.877 4.36816C186.875 4.56348 186.854 4.74805 186.815 4.92188C186.778 5.0957 186.715 5.24609 186.625 5.37305C186.551 5.49023 186.452 5.58398 186.329 5.6543C186.208 5.72461 186.062 5.75977 185.89 5.75977C185.759 5.75977 185.642 5.74023 185.538 5.70117C185.435 5.66016 185.346 5.60352 185.271 5.53125C185.193 5.45703 185.128 5.36719 185.075 5.26172C185.024 5.1543 184.985 5.03516 184.958 4.9043L186.848 3.20215C186.857 3.27637 186.864 3.3584 186.868 3.44824C186.872 3.53809 186.875 3.61426 186.877 3.67676V4.36816ZM194.436 4.3125V3.42188C194.434 3.14844 194.396 2.88965 194.324 2.64551C194.254 2.39941 194.143 2.19727 193.99 2.03906C193.885 1.92383 193.756 1.83398 193.604 1.76953C193.453 1.70508 193.282 1.67285 193.091 1.67285C192.862 1.67285 192.664 1.71777 192.496 1.80762C192.328 1.89746 192.189 2.02148 192.08 2.17969C191.969 2.33789 191.886 2.52441 191.831 2.73926C191.776 2.9541 191.749 3.18164 191.749 3.42188V4.3125C191.749 4.58789 191.784 4.84668 191.854 5.08887C191.927 5.3291 192.042 5.53125 192.2 5.69531C192.308 5.81445 192.437 5.90527 192.587 5.96777C192.737 6.02832 192.907 6.05859 193.097 6.05859C193.329 6.05859 193.529 6.0127 193.697 5.9209C193.865 5.82715 194.003 5.70117 194.11 5.54297C194.22 5.38477 194.301 5.2002 194.354 4.98926C194.408 4.77832 194.436 4.55273 194.436 4.3125ZM192.136 4.56738C192.122 4.48926 192.112 4.41211 192.106 4.33594C192.103 4.25977 192.101 4.18359 192.101 4.10742V3.36035C192.101 3.16895 192.12 2.9834 192.159 2.80371C192.2 2.62207 192.263 2.47168 192.347 2.35254C192.431 2.2334 192.531 2.14062 192.648 2.07422C192.768 2.00781 192.915 1.97461 193.091 1.97461C193.228 1.97461 193.349 1.99609 193.454 2.03906C193.56 2.08008 193.65 2.13965 193.727 2.21777C193.803 2.2959 193.865 2.38965 193.914 2.49902C193.965 2.60645 194.003 2.72656 194.028 2.85938L192.136 4.56738ZM194.084 4.36816C194.082 4.56348 194.062 4.74805 194.022 4.92188C193.985 5.0957 193.922 5.24609 193.832 5.37305C193.758 5.49023 193.659 5.58398 193.536 5.6543C193.415 5.72461 193.269 5.75977 193.097 5.75977C192.966 5.75977 192.849 5.74023 192.745 5.70117C192.642 5.66016 192.553 5.60352 192.479 5.53125C192.4 5.45703 192.335 5.36719 192.282 5.26172C192.231 5.1543 192.192 5.03516 192.165 4.9043L194.055 3.20215C194.064 3.27637 194.071 3.3584 194.075 3.44824C194.079 3.53809 194.082 3.61426 194.084 3.67676V4.36816Z" fill="white"/>
<path d="M94.5368 11.788V12.61H93.4208V16H92.3948V12.61H91.2788V11.788H94.5368ZM96.0777 13.21C96.1977 13.026 96.3477 12.882 96.5277 12.778C96.7077 12.67 96.9077 12.616 97.1277 12.616V13.702H96.8457C96.5897 13.702 96.3977 13.758 96.2697 13.87C96.1417 13.978 96.0777 14.17 96.0777 14.446V16H95.0517V12.652H96.0777V13.21ZM97.4141 14.32C97.4141 13.976 97.4781 13.674 97.6061 13.414C97.7381 13.154 97.9161 12.954 98.1401 12.814C98.3641 12.674 98.6141 12.604 98.8901 12.604C99.1261 12.604 99.3321 12.652 99.5081 12.748C99.6881 12.844 99.8261 12.97 99.9221 13.126V12.652H100.948V16H99.9221V15.526C99.8221 15.682 99.6821 15.808 99.5021 15.904C99.3261 16 99.1201 16.048 98.8841 16.048C98.6121 16.048 98.3641 15.978 98.1401 15.838C97.9161 15.694 97.7381 15.492 97.6061 15.232C97.4781 14.968 97.4141 14.664 97.4141 14.32ZM99.9221 14.326C99.9221 14.07 99.8501 13.868 99.7061 13.72C99.5661 13.572 99.3941 13.498 99.1901 13.498C98.9861 13.498 98.8121 13.572 98.6681 13.72C98.5281 13.864 98.4581 14.064 98.4581 14.32C98.4581 14.576 98.5281 14.78 98.6681 14.932C98.8121 15.08 98.9861 15.154 99.1901 15.154C99.3941 15.154 99.5661 15.08 99.7061 14.932C99.8501 14.784 99.9221 14.582 99.9221 14.326ZM103.73 12.616C104.122 12.616 104.434 12.744 104.666 13C104.902 13.252 105.02 13.6 105.02 14.044V16H104V14.182C104 13.958 103.942 13.784 103.826 13.66C103.71 13.536 103.554 13.474 103.358 13.474C103.162 13.474 103.006 13.536 102.89 13.66C102.774 13.784 102.716 13.958 102.716 14.182V16H101.69V12.652H102.716V13.096C102.82 12.948 102.96 12.832 103.136 12.748C103.312 12.66 103.51 12.616 103.73 12.616ZM107.095 16.048C106.803 16.048 106.543 15.998 106.315 15.898C106.087 15.798 105.907 15.662 105.775 15.49C105.643 15.314 105.569 15.118 105.553 14.902H106.567C106.579 15.018 106.633 15.112 106.729 15.184C106.825 15.256 106.943 15.292 107.083 15.292C107.211 15.292 107.309 15.268 107.377 15.22C107.449 15.168 107.485 15.102 107.485 15.022C107.485 14.926 107.435 14.856 107.335 14.812C107.235 14.764 107.073 14.712 106.849 14.656C106.609 14.6 106.409 14.542 106.249 14.482C106.089 14.418 105.951 14.32 105.835 14.188C105.719 14.052 105.661 13.87 105.661 13.642C105.661 13.45 105.713 13.276 105.817 13.12C105.925 12.96 106.081 12.834 106.285 12.742C106.493 12.65 106.739 12.604 107.023 12.604C107.443 12.604 107.773 12.708 108.013 12.916C108.257 13.124 108.397 13.4 108.433 13.744H107.485C107.469 13.628 107.417 13.536 107.329 13.468C107.245 13.4 107.133 13.366 106.993 13.366C106.873 13.366 106.781 13.39 106.717 13.438C106.653 13.482 106.621 13.544 106.621 13.624C106.621 13.72 106.671 13.792 106.771 13.84C106.875 13.888 107.035 13.936 107.251 13.984C107.499 14.048 107.701 14.112 107.857 14.176C108.013 14.236 108.149 14.336 108.265 14.476C108.385 14.612 108.447 14.796 108.451 15.028C108.451 15.224 108.395 15.4 108.283 15.556C108.175 15.708 108.017 15.828 107.809 15.916C107.605 16.004 107.367 16.048 107.095 16.048ZM113.351 12.616C113.767 12.616 114.097 12.742 114.341 12.994C114.589 13.246 114.713 13.596 114.713 14.044V16H113.693V14.182C113.693 13.966 113.635 13.8 113.519 13.684C113.407 13.564 113.251 13.504 113.051 13.504C112.851 13.504 112.693 13.564 112.577 13.684C112.465 13.8 112.409 13.966 112.409 14.182V16H111.389V14.182C111.389 13.966 111.331 13.8 111.215 13.684C111.103 13.564 110.947 13.504 110.747 13.504C110.547 13.504 110.389 13.564 110.273 13.684C110.161 13.8 110.105 13.966 110.105 14.182V16H109.079V12.652H110.105V13.072C110.209 12.932 110.345 12.822 110.513 12.742C110.681 12.658 110.871 12.616 111.083 12.616C111.335 12.616 111.559 12.67 111.755 12.778C111.955 12.886 112.111 13.04 112.223 13.24C112.339 13.056 112.497 12.906 112.697 12.79C112.897 12.674 113.115 12.616 113.351 12.616ZM115.947 12.304C115.767 12.304 115.619 12.252 115.503 12.148C115.391 12.04 115.335 11.908 115.335 11.752C115.335 11.592 115.391 11.46 115.503 11.356C115.619 11.248 115.767 11.194 115.947 11.194C116.123 11.194 116.267 11.248 116.379 11.356C116.495 11.46 116.553 11.592 116.553 11.752C116.553 11.908 116.495 12.04 116.379 12.148C116.267 12.252 116.123 12.304 115.947 12.304ZM116.457 12.652V16H115.431V12.652H116.457ZM118.562 16.048C118.27 16.048 118.01 15.998 117.782 15.898C117.554 15.798 117.374 15.662 117.242 15.49C117.11 15.314 117.036 15.118 117.02 14.902H118.034C118.046 15.018 118.1 15.112 118.196 15.184C118.292 15.256 118.41 15.292 118.55 15.292C118.678 15.292 118.776 15.268 118.844 15.22C118.916 15.168 118.952 15.102 118.952 15.022C118.952 14.926 118.902 14.856 118.802 14.812C118.702 14.764 118.54 14.712 118.316 14.656C118.076 14.6 117.876 14.542 117.716 14.482C117.556 14.418 117.418 14.32 117.302 14.188C117.186 14.052 117.128 13.87 117.128 13.642C117.128 13.45 117.18 13.276 117.284 13.12C117.392 12.96 117.548 12.834 117.752 12.742C117.96 12.65 118.206 12.604 118.49 12.604C118.91 12.604 119.24 12.708 119.48 12.916C119.724 13.124 119.864 13.4 119.9 13.744H118.952C118.936 13.628 118.884 13.536 118.796 13.468C118.712 13.4 118.6 13.366 118.46 13.366C118.34 13.366 118.248 13.39 118.184 13.438C118.12 13.482 118.088 13.544 118.088 13.624C118.088 13.72 118.138 13.792 118.238 13.84C118.342 13.888 118.502 13.936 118.718 13.984C118.966 14.048 119.168 14.112 119.324 14.176C119.48 14.236 119.616 14.336 119.732 14.476C119.852 14.612 119.914 14.796 119.918 15.028C119.918 15.224 119.862 15.4 119.75 15.556C119.642 15.708 119.484 15.828 119.276 15.916C119.072 16.004 118.834 16.048 118.562 16.048ZM121.908 16.048C121.616 16.048 121.356 15.998 121.128 15.898C120.9 15.798 120.72 15.662 120.588 15.49C120.456 15.314 120.382 15.118 120.366 14.902H121.38C121.392 15.018 121.446 15.112 121.542 15.184C121.638 15.256 121.756 15.292 121.896 15.292C122.024 15.292 122.122 15.268 122.19 15.22C122.262 15.168 122.298 15.102 122.298 15.022C122.298 14.926 122.248 14.856 122.148 14.812C122.048 14.764 121.886 14.712 121.662 14.656C121.422 14.6 121.222 14.542 121.062 14.482C120.902 14.418 120.764 14.32 120.648 14.188C120.532 14.052 120.474 13.87 120.474 13.642C120.474 13.45 120.526 13.276 120.63 13.12C120.738 12.96 120.894 12.834 121.098 12.742C121.306 12.65 121.552 12.604 121.836 12.604C122.256 12.604 122.586 12.708 122.826 12.916C123.07 13.124 123.21 13.4 123.246 13.744H122.298C122.282 13.628 122.23 13.536 122.142 13.468C122.058 13.4 121.946 13.366 121.806 13.366C121.686 13.366 121.594 13.39 121.53 13.438C121.466 13.482 121.434 13.544 121.434 13.624C121.434 13.72 121.484 13.792 121.584 13.84C121.688 13.888 121.848 13.936 122.064 13.984C122.312 14.048 122.514 14.112 122.67 14.176C122.826 14.236 122.962 14.336 123.078 14.476C123.198 14.612 123.26 14.796 123.264 15.028C123.264 15.224 123.208 15.4 123.096 15.556C122.988 15.708 122.83 15.828 122.622 15.916C122.418 16.004 122.18 16.048 121.908 16.048ZM124.408 12.304C124.228 12.304 124.08 12.252 123.964 12.148C123.852 12.04 123.796 11.908 123.796 11.752C123.796 11.592 123.852 11.46 123.964 11.356C124.08 11.248 124.228 11.194 124.408 11.194C124.584 11.194 124.728 11.248 124.84 11.356C124.956 11.46 125.014 11.592 125.014 11.752C125.014 11.908 124.956 12.04 124.84 12.148C124.728 12.252 124.584 12.304 124.408 12.304ZM124.918 12.652V16H123.892V12.652H124.918ZM127.185 16.048C126.857 16.048 126.561 15.978 126.297 15.838C126.037 15.698 125.831 15.498 125.679 15.238C125.531 14.978 125.457 14.674 125.457 14.326C125.457 13.982 125.533 13.68 125.685 13.42C125.837 13.156 126.045 12.954 126.309 12.814C126.573 12.674 126.869 12.604 127.197 12.604C127.525 12.604 127.821 12.674 128.085 12.814C128.349 12.954 128.557 13.156 128.709 13.42C128.861 13.68 128.937 13.982 128.937 14.326C128.937 14.67 128.859 14.974 128.703 15.238C128.551 15.498 128.341 15.698 128.073 15.838C127.809 15.978 127.513 16.048 127.185 16.048ZM127.185 15.16C127.381 15.16 127.547 15.088 127.683 14.944C127.823 14.8 127.893 14.594 127.893 14.326C127.893 14.058 127.825 13.852 127.689 13.708C127.557 13.564 127.393 13.492 127.197 13.492C126.997 13.492 126.831 13.564 126.699 13.708C126.567 13.848 126.501 14.054 126.501 14.326C126.501 14.594 126.565 14.8 126.693 14.944C126.825 15.088 126.989 15.16 127.185 15.16ZM131.521 12.616C131.913 12.616 132.225 12.744 132.457 13C132.693 13.252 132.811 13.6 132.811 14.044V16H131.791V14.182C131.791 13.958 131.733 13.784 131.617 13.66C131.501 13.536 131.345 13.474 131.149 13.474C130.953 13.474 130.797 13.536 130.681 13.66C130.565 13.784 130.507 13.958 130.507 14.182V16H129.481V12.652H130.507V13.096C130.611 12.948 130.751 12.832 130.927 12.748C131.103 12.66 131.301 12.616 131.521 12.616ZM139.566 11.788V16H138.54V13.474L137.598 16H136.77L135.822 13.468V16H134.796V11.788H136.008L137.19 14.704L138.36 11.788H139.566ZM143.46 14.272C143.46 14.368 143.454 14.468 143.442 14.572H141.12C141.136 14.78 141.202 14.94 141.318 15.052C141.438 15.16 141.584 15.214 141.756 15.214C142.012 15.214 142.19 15.106 142.29 14.89H143.382C143.326 15.11 143.224 15.308 143.076 15.484C142.932 15.66 142.75 15.798 142.53 15.898C142.31 15.998 142.064 16.048 141.792 16.048C141.464 16.048 141.172 15.978 140.916 15.838C140.66 15.698 140.46 15.498 140.316 15.238C140.172 14.978 140.1 14.674 140.1 14.326C140.1 13.978 140.17 13.674 140.31 13.414C140.454 13.154 140.654 12.954 140.91 12.814C141.166 12.674 141.46 12.604 141.792 12.604C142.116 12.604 142.404 12.672 142.656 12.808C142.908 12.944 143.104 13.138 143.244 13.39C143.388 13.642 143.46 13.936 143.46 14.272ZM142.41 14.002C142.41 13.826 142.35 13.686 142.23 13.582C142.11 13.478 141.96 13.426 141.78 13.426C141.608 13.426 141.462 13.476 141.342 13.576C141.226 13.676 141.154 13.818 141.126 14.002H142.41ZM143.797 14.32C143.797 13.976 143.861 13.674 143.989 13.414C144.121 13.154 144.299 12.954 144.523 12.814C144.747 12.674 144.997 12.604 145.273 12.604C145.493 12.604 145.693 12.65 145.873 12.742C146.057 12.834 146.201 12.958 146.305 13.114V11.56H147.331V16H146.305V15.52C146.209 15.68 146.071 15.808 145.891 15.904C145.715 16 145.509 16.048 145.273 16.048C144.997 16.048 144.747 15.978 144.523 15.838C144.299 15.694 144.121 15.492 143.989 15.232C143.861 14.968 143.797 14.664 143.797 14.32ZM146.305 14.326C146.305 14.07 146.233 13.868 146.089 13.72C145.949 13.572 145.777 13.498 145.573 13.498C145.369 13.498 145.195 13.572 145.051 13.72C144.911 13.864 144.841 14.064 144.841 14.32C144.841 14.576 144.911 14.78 145.051 14.932C145.195 15.08 145.369 15.154 145.573 15.154C145.777 15.154 145.949 15.08 146.089 14.932C146.233 14.784 146.305 14.582 146.305 14.326ZM148.589 12.304C148.409 12.304 148.261 12.252 148.145 12.148C148.033 12.04 147.977 11.908 147.977 11.752C147.977 11.592 148.033 11.46 148.145 11.356C148.261 11.248 148.409 11.194 148.589 11.194C148.765 11.194 148.909 11.248 149.021 11.356C149.137 11.46 149.195 11.592 149.195 11.752C149.195 11.908 149.137 12.04 149.021 12.148C148.909 12.252 148.765 12.304 148.589 12.304ZM149.099 12.652V16H148.073V12.652H149.099ZM153.149 12.652V16H152.123V15.544C152.019 15.692 151.877 15.812 151.697 15.904C151.521 15.992 151.325 16.036 151.109 16.036C150.853 16.036 150.627 15.98 150.431 15.868C150.235 15.752 150.083 15.586 149.975 15.37C149.867 15.154 149.813 14.9 149.813 14.608V12.652H150.833V14.47C150.833 14.694 150.891 14.868 151.007 14.992C151.123 15.116 151.279 15.178 151.475 15.178C151.675 15.178 151.833 15.116 151.949 14.992C152.065 14.868 152.123 14.694 152.123 14.47V12.652H153.149ZM158.158 12.616C158.574 12.616 158.904 12.742 159.148 12.994C159.396 13.246 159.52 13.596 159.52 14.044V16H158.5V14.182C158.5 13.966 158.442 13.8 158.326 13.684C158.214 13.564 158.058 13.504 157.858 13.504C157.658 13.504 157.5 13.564 157.384 13.684C157.272 13.8 157.216 13.966 157.216 14.182V16H156.196V14.182C156.196 13.966 156.138 13.8 156.022 13.684C155.91 13.564 155.754 13.504 155.554 13.504C155.354 13.504 155.196 13.564 155.08 13.684C154.968 13.8 154.912 13.966 154.912 14.182V16H153.886V12.652H154.912V13.072C155.016 12.932 155.152 12.822 155.32 12.742C155.488 12.658 155.678 12.616 155.89 12.616C156.142 12.616 156.366 12.67 156.562 12.778C156.762 12.886 156.918 13.04 157.03 13.24C157.146 13.056 157.304 12.906 157.504 12.79C157.704 12.674 157.922 12.616 158.158 12.616Z" fill="#1F1F26"/>
<path d="M13.0122 40.042C12.7042 40.042 12.4282 39.992 12.1842 39.892C11.9402 39.792 11.7442 39.644 11.5962 39.448C11.4522 39.252 11.3762 39.016 11.3682 38.74H12.4602C12.4762 38.896 12.5302 39.016 12.6222 39.1C12.7142 39.18 12.8342 39.22 12.9822 39.22C13.1342 39.22 13.2542 39.186 13.3422 39.118C13.4302 39.046 13.4742 38.948 13.4742 38.824C13.4742 38.72 13.4382 38.634 13.3662 38.566C13.2982 38.498 13.2122 38.442 13.1082 38.398C13.0082 38.354 12.8642 38.304 12.6762 38.248C12.4042 38.164 12.1822 38.08 12.0102 37.996C11.8382 37.912 11.6902 37.788 11.5662 37.624C11.4422 37.46 11.3802 37.246 11.3802 36.982C11.3802 36.59 11.5222 36.284 11.8062 36.064C12.0902 35.84 12.4602 35.728 12.9162 35.728C13.3802 35.728 13.7542 35.84 14.0382 36.064C14.3222 36.284 14.4742 36.592 14.4942 36.988H13.3842C13.3762 36.852 13.3262 36.746 13.2342 36.67C13.1422 36.59 13.0242 36.55 12.8802 36.55C12.7562 36.55 12.6562 36.584 12.5802 36.652C12.5042 36.716 12.4662 36.81 12.4662 36.934C12.4662 37.07 12.5302 37.176 12.6582 37.252C12.7862 37.328 12.9862 37.41 13.2582 37.498C13.5302 37.59 13.7502 37.678 13.9182 37.762C14.0902 37.846 14.2382 37.968 14.3622 38.128C14.4862 38.288 14.5482 38.494 14.5482 38.746C14.5482 38.986 14.4862 39.204 14.3622 39.4C14.2422 39.596 14.0662 39.752 13.8342 39.868C13.6022 39.984 13.3282 40.042 13.0122 40.042ZM18.3356 38.272C18.3356 38.368 18.3296 38.468 18.3176 38.572H15.9956C16.0116 38.78 16.0776 38.94 16.1936 39.052C16.3136 39.16 16.4596 39.214 16.6316 39.214C16.8876 39.214 17.0656 39.106 17.1656 38.89H18.2576C18.2016 39.11 18.0996 39.308 17.9516 39.484C17.8076 39.66 17.6256 39.798 17.4056 39.898C17.1856 39.998 16.9396 40.048 16.6676 40.048C16.3396 40.048 16.0476 39.978 15.7916 39.838C15.5356 39.698 15.3356 39.498 15.1916 39.238C15.0476 38.978 14.9756 38.674 14.9756 38.326C14.9756 37.978 15.0456 37.674 15.1856 37.414C15.3296 37.154 15.5296 36.954 15.7856 36.814C16.0416 36.674 16.3356 36.604 16.6676 36.604C16.9916 36.604 17.2796 36.672 17.5316 36.808C17.7836 36.944 17.9796 37.138 18.1196 37.39C18.2636 37.642 18.3356 37.936 18.3356 38.272ZM17.2856 38.002C17.2856 37.826 17.2256 37.686 17.1056 37.582C16.9856 37.478 16.8356 37.426 16.6556 37.426C16.4836 37.426 16.3376 37.476 16.2176 37.576C16.1016 37.676 16.0296 37.818 16.0016 38.002H17.2856ZM20.9169 36.616C21.3089 36.616 21.6209 36.744 21.8529 37C22.0889 37.252 22.2069 37.6 22.2069 38.044V40H21.1869V38.182C21.1869 37.958 21.1289 37.784 21.0129 37.66C20.8969 37.536 20.7409 37.474 20.5449 37.474C20.3489 37.474 20.1929 37.536 20.0769 37.66C19.9609 37.784 19.9029 37.958 19.9029 38.182V40H18.8769V36.652H19.9029V37.096C20.0069 36.948 20.1469 36.832 20.3229 36.748C20.4989 36.66 20.6969 36.616 20.9169 36.616ZM22.7159 38.32C22.7159 37.976 22.7799 37.674 22.9079 37.414C23.0399 37.154 23.2179 36.954 23.4419 36.814C23.6659 36.674 23.9159 36.604 24.1919 36.604C24.4119 36.604 24.6119 36.65 24.7919 36.742C24.9759 36.834 25.1199 36.958 25.2239 37.114V35.56H26.2499V40H25.2239V39.52C25.1279 39.68 24.9899 39.808 24.8099 39.904C24.6339 40 24.4279 40.048 24.1919 40.048C23.9159 40.048 23.6659 39.978 23.4419 39.838C23.2179 39.694 23.0399 39.492 22.9079 39.232C22.7799 38.968 22.7159 38.664 22.7159 38.32ZM25.2239 38.326C25.2239 38.07 25.1519 37.868 25.0079 37.72C24.8679 37.572 24.6959 37.498 24.4919 37.498C24.2879 37.498 24.1139 37.572 23.9699 37.72C23.8299 37.864 23.7599 38.064 23.7599 38.32C23.7599 38.576 23.8299 38.78 23.9699 38.932C24.1139 39.08 24.2879 39.154 24.4919 39.154C24.6959 39.154 24.8679 39.08 25.0079 38.932C25.1519 38.784 25.2239 38.582 25.2239 38.326ZM30.1481 38.272C30.1481 38.368 30.1421 38.468 30.1301 38.572H27.8081C27.8241 38.78 27.8901 38.94 28.0061 39.052C28.1261 39.16 28.2721 39.214 28.4441 39.214C28.7001 39.214 28.8781 39.106 28.9781 38.89H30.0701C30.0141 39.11 29.9121 39.308 29.7641 39.484C29.6201 39.66 29.4381 39.798 29.2181 39.898C28.9981 39.998 28.7521 40.048 28.4801 40.048C28.1521 40.048 27.8601 39.978 27.6041 39.838C27.3481 39.698 27.1481 39.498 27.0041 39.238C26.8601 38.978 26.7881 38.674 26.7881 38.326C26.7881 37.978 26.8581 37.674 26.9981 37.414C27.1421 37.154 27.3421 36.954 27.5981 36.814C27.8541 36.674 28.1481 36.604 28.4801 36.604C28.8041 36.604 29.0921 36.672 29.3441 36.808C29.5961 36.944 29.7921 37.138 29.9321 37.39C30.0761 37.642 30.1481 37.936 30.1481 38.272ZM29.0981 38.002C29.0981 37.826 29.0381 37.686 28.9181 37.582C28.7981 37.478 28.6481 37.426 28.4681 37.426C28.2961 37.426 28.1501 37.476 28.0301 37.576C27.9141 37.676 27.8421 37.818 27.8141 38.002H29.0981ZM31.7154 37.21C31.8354 37.026 31.9854 36.882 32.1654 36.778C32.3454 36.67 32.5454 36.616 32.7654 36.616V37.702H32.4834C32.2274 37.702 32.0354 37.758 31.9074 37.87C31.7794 37.978 31.7154 38.17 31.7154 38.446V40H30.6894V36.652H31.7154V37.21Z" fill="#1F1F26"/>
<path d="M214.655 40L213.779 38.41H213.533V40H212.507V35.788H214.229C214.561 35.788 214.843 35.846 215.075 35.962C215.311 36.078 215.487 36.238 215.603 36.442C215.719 36.642 215.777 36.866 215.777 37.114C215.777 37.394 215.697 37.644 215.537 37.864C215.381 38.084 215.149 38.24 214.841 38.332L215.813 40H214.655ZM213.533 37.684H214.169C214.357 37.684 214.497 37.638 214.589 37.546C214.685 37.454 214.733 37.324 214.733 37.156C214.733 36.996 214.685 36.87 214.589 36.778C214.497 36.686 214.357 36.64 214.169 36.64H213.533V37.684ZM219.577 38.272C219.577 38.368 219.571 38.468 219.559 38.572H217.237C217.253 38.78 217.319 38.94 217.435 39.052C217.555 39.16 217.701 39.214 217.873 39.214C218.129 39.214 218.307 39.106 218.407 38.89H219.499C219.443 39.11 219.341 39.308 219.193 39.484C219.049 39.66 218.867 39.798 218.647 39.898C218.427 39.998 218.181 40.048 217.909 40.048C217.581 40.048 217.289 39.978 217.033 39.838C216.777 39.698 216.577 39.498 216.433 39.238C216.289 38.978 216.217 38.674 216.217 38.326C216.217 37.978 216.287 37.674 216.427 37.414C216.571 37.154 216.771 36.954 217.027 36.814C217.283 36.674 217.577 36.604 217.909 36.604C218.233 36.604 218.521 36.672 218.773 36.808C219.025 36.944 219.221 37.138 219.361 37.39C219.505 37.642 219.577 37.936 219.577 38.272ZM218.527 38.002C218.527 37.826 218.467 37.686 218.347 37.582C218.227 37.478 218.077 37.426 217.897 37.426C217.725 37.426 217.579 37.476 217.459 37.576C217.343 37.676 217.271 37.818 217.243 38.002H218.527ZM219.914 38.326C219.914 37.978 219.984 37.674 220.124 37.414C220.268 37.154 220.466 36.954 220.718 36.814C220.974 36.674 221.266 36.604 221.594 36.604C222.014 36.604 222.364 36.714 222.644 36.934C222.928 37.154 223.114 37.464 223.202 37.864H222.11C222.018 37.608 221.84 37.48 221.576 37.48C221.388 37.48 221.238 37.554 221.126 37.702C221.014 37.846 220.958 38.054 220.958 38.326C220.958 38.598 221.014 38.808 221.126 38.956C221.238 39.1 221.388 39.172 221.576 39.172C221.84 39.172 222.018 39.044 222.11 38.788H223.202C223.114 39.18 222.928 39.488 222.644 39.712C222.36 39.936 222.01 40.048 221.594 40.048C221.266 40.048 220.974 39.978 220.718 39.838C220.466 39.698 220.268 39.498 220.124 39.238C219.984 38.978 219.914 38.674 219.914 38.326ZM226.907 38.272C226.907 38.368 226.901 38.468 226.889 38.572H224.567C224.583 38.78 224.649 38.94 224.765 39.052C224.885 39.16 225.031 39.214 225.203 39.214C225.459 39.214 225.637 39.106 225.737 38.89H226.829C226.773 39.11 226.671 39.308 226.523 39.484C226.379 39.66 226.197 39.798 225.977 39.898C225.757 39.998 225.511 40.048 225.239 40.048C224.911 40.048 224.619 39.978 224.363 39.838C224.107 39.698 223.907 39.498 223.763 39.238C223.619 38.978 223.547 38.674 223.547 38.326C223.547 37.978 223.617 37.674 223.757 37.414C223.901 37.154 224.101 36.954 224.357 36.814C224.613 36.674 224.907 36.604 225.239 36.604C225.563 36.604 225.851 36.672 226.103 36.808C226.355 36.944 226.551 37.138 226.691 37.39C226.835 37.642 226.907 37.936 226.907 38.272ZM225.857 38.002C225.857 37.826 225.797 37.686 225.677 37.582C225.557 37.478 225.407 37.426 225.227 37.426C225.055 37.426 224.909 37.476 224.789 37.576C224.673 37.676 224.601 37.818 224.573 38.002H225.857ZM227.964 36.304C227.784 36.304 227.636 36.252 227.52 36.148C227.408 36.04 227.352 35.908 227.352 35.752C227.352 35.592 227.408 35.46 227.52 35.356C227.636 35.248 227.784 35.194 227.964 35.194C228.14 35.194 228.284 35.248 228.396 35.356C228.512 35.46 228.57 35.592 228.57 35.752C228.57 35.908 228.512 36.04 228.396 36.148C228.284 36.252 228.14 36.304 227.964 36.304ZM228.474 36.652V40H227.448V36.652H228.474ZM230.724 39.04L231.45 36.652H232.542L231.354 40H230.088L228.9 36.652H229.998L230.724 39.04ZM236.13 38.272C236.13 38.368 236.124 38.468 236.112 38.572H233.79C233.806 38.78 233.872 38.94 233.988 39.052C234.108 39.16 234.254 39.214 234.426 39.214C234.682 39.214 234.86 39.106 234.96 38.89H236.052C235.996 39.11 235.894 39.308 235.746 39.484C235.602 39.66 235.42 39.798 235.2 39.898C234.98 39.998 234.734 40.048 234.462 40.048C234.134 40.048 233.842 39.978 233.586 39.838C233.33 39.698 233.13 39.498 232.986 39.238C232.842 38.978 232.77 38.674 232.77 38.326C232.77 37.978 232.84 37.674 232.98 37.414C233.124 37.154 233.324 36.954 233.58 36.814C233.836 36.674 234.13 36.604 234.462 36.604C234.786 36.604 235.074 36.672 235.326 36.808C235.578 36.944 235.774 37.138 235.914 37.39C236.058 37.642 236.13 37.936 236.13 38.272ZM235.08 38.002C235.08 37.826 235.02 37.686 234.9 37.582C234.78 37.478 234.63 37.426 234.45 37.426C234.278 37.426 234.132 37.476 234.012 37.576C233.896 37.676 233.824 37.818 233.796 38.002H235.08ZM237.697 37.21C237.817 37.026 237.967 36.882 238.147 36.778C238.327 36.67 238.527 36.616 238.747 36.616V37.702H238.465C238.209 37.702 238.017 37.758 237.889 37.87C237.761 37.978 237.697 38.17 237.697 38.446V40H236.671V36.652H237.697V37.21Z" fill="#1F1F26"/>
</svg>
